# xmcd
#
# Track frame offsets:
#	150
#	9377
#	20935
#	38542
#	49985
#	65630
#	90075
#	102522
#	123955
#	139085
#	148872
#	164317
#	178025
#	192980
#	205942
#	218417
#	230130
#	266875
#	281627
#	297192
#	309232
#
# Disc length: 4286
#
# Revision: 1
# Processed by: cddbd v1.5.1PL0 Copyright (c) Steve Scherf et al.
# Submitted via: CDex 1.51
# Normalized: r0:TDELIM( - )
#
DISCID=3a10bc15
DTITLE=Sonny Terry, Brownie McGhee and Big Bill Broonzy - The Bluesmen
DYEAR=1992
DGENRE=Blues
TTITLE0=Sonny Terry and Brownie McGhee - I Love You Baby
TTITLE1=Sonny Terry and Brownie McGhee - Cornbread, Peas and Black Molasses
TTITLE2=Sonny Terry and Brownie McGhee - That's How I Feel
TTITLE3=Sonny Terry and Brownie McGhee - Gone But Not Forgotten
TTITLE4=Sonny Terry and Brownie McGhee - Treated Wrong
TTITLE5=Sonny Terry and Brownie McGhee - Brownie's Blues
TTITLE6=Sonny Terry and Brownie McGhee - Southern Train
TTITLE7=Sonny Terry and Brownie McGhee - Just a Dream
TTITLE8=Sonny Terry and Brownie McGhee - Sonny's Blues
TTITLE9=Sonny Terry and Brownie McGhee - You'd Better Mind
TTITLE10=Sonny Terry and Brownie McGhee - Change the Lock on My Door
TTITLE11=Sonny Terry and Brownie McGhee - Climbing on top of the Hill
TTITLE12=Big Bill Broonzy - When Do I Get to be Called a Man
TTITLE13=Big Bill Broonzy - Mindin' My Own Business
TTITLE14=Big Bill Broonzy - Partnership Woman
TTITLE15=Big Bill Broonzy - St. Louis Blues
TTITLE16=Big Bill Broonzy - Southern Saga
TTITLE17=Big Bill Broonzy - Southbound Train
TTITLE18=Big Bill Broonzy - Saturday Evening
TTITLE19=Big Bill Broonzy - Glory of Love
TTITLE20=Big Bill Broonzy - It feels so Good
EXTD=YEAR: 1992
EXTT0=
EXTT1=
EXTT2=
EXTT3=
EXTT4=
EXTT5=
EXTT6=
EXTT7=
EXTT8=
EXTT9=
EXTT10=
EXTT11=
EXTT12=
EXTT13=
EXTT14=
EXTT15=
EXTT16=
EXTT17=
EXTT18=
EXTT19=
EXTT20=
PLAYORDER=
